<svg width="32" height="32" viewBox="0 0 32 32" fill="none" xmlns="http://www.w3.org/2000/svg" role="img" aria-label="Tulip Labs">
  <path d="M16 4c-2.2 2.0-3.3 4.6-3.3 7.6 0 .9.5 1.4 1.3 1.6V20a2 2 0 1 0 4 0v-6.8c.8-.2 1.3-.7 1.3-1.6 0-3-1.1-5.6-3.3-7.6Z" fill="#D6336C"/>
  <path d="M12.7 9.2c-1.6-1.2-3.5-1.6-5.6-1.2.1 3.0 1.2 5.3 3.3 6.7 1.5 1.0 3.2 1.2 5.0.9-1.3-2.0-2.2-4.1-2.7-6.4Z" fill="#E86A98"/>
  <path d="M19.3 9.2c1.6-1.2 3.5-1.6 5.6-1.2-.1 3.0-1.2 5.3-3.3 6.7-1.5 1.0-3.2 1.2-5.0.9 1.3-2.0 2.2-4.1 2.7-6.4Z" fill="#E86A98"/>
  <path d="M16 21.5c1.6 2.2 3.9 3.6 6.8 4.1-.5 1.0-1.4 1.8-2.7 2.2 1.0.4 2.1.4 3.2 0-1.6 2.0-4.1 2.6-7.3 1.8V21.5h0Z" fill="#16A34A" opacity="0.0"/>
  <rect x="15.2" y="19" width="1.6" height="9" rx="0.8" fill="#3F7A52"/>
</svg>
